{
  "accessors": [
    {
      "bufferView": 2,
      "componentType": 5126,
      "count": 65534,
      "max": [
        1.553712248802185,
        7.113833904266357,
        1.2365961074829102
      ],
      "min": [
        -1.6936967372894287,
        1.1846656799316406,
        -0.36354678869247437
      ],
      "type": "VEC3"
    },
    {
      "bufferView": 2,
      "byteOffset": 786408,
      "componentType": 5126,
      "count": 65534,
      "max": [
        0.9999638199806213,
        0.9999465346336365,
        0.9999949932098389
      ],
      "min": [
        -0.9999905228614807,
        -0.9999520778656006,
        -0.9999952912330627
      ],
      "type": "VEC3"
    },
    {
      "bufferView": 3,
      "componentType": 5126,
      "count": 65534,
      "max": [
        0.9999838471412659,
        0.99998939037323,
        0.9999933838844299,
        1.0
      ],
      "min": [
        -0.9999986886978149,
        -0.9999954700469971,
        -0.9999228119850159,
        -1.0
      ],
      "type": "VEC4"
    },
    {
      "bufferView": 1,
      "componentType": 5126,
      "count": 65534,
      "max": [
        1.0,
        1.0
      ],
      "min": [
        0.003982484340667725,
        0.0
      ],
      "type": "VEC2"
    },
    {
      "bufferView": 0,
      "componentType": 5125,
      "count": 206028,
      "type": "SCALAR"
    },
    {
      "bufferView": 2,
      "byteOffset": 1572816,
      "componentType": 5126,
      "count": 65532,
      "max": [
        1.5113993883132935,
        6.703012943267822,
        0.8213109374046326
      ],
      "min": [
        -1.3486822843551636,
        3.0137784481048584,
        -0.04691508412361145
      ],
      "type": "VEC3"
    },
    {
      "bufferView": 2,
      "byteOffset": 2359200,
      "componentType": 5126,
      "count": 65532,
      "max": [
        0.9999852776527405,
        0.999987006187439,
        0.6061023473739624
      ],
      "min": [
        -0.9999938607215881,
        -0.9999963641166687,
        -0.7391254305839539
      ],
      "type": "VEC3"
    },
    {
      "bufferView": 3,
      "byteOffset": 1048544,
      "componentType": 5126,
      "count": 65532,
      "max": [
        0.999994158744812,
        0.999975323677063,
        0.8342390060424805,
        1.0
      ],
      "min": [
        -0.9999716281890869,
        -0.9999315738677979,
        -0.8065624833106995,
        1.0
      ],
      "type": "VEC4"
    },
    {
      "bufferView": 1,
      "byteOffset": 524272,
      "componentType": 5126,
      "count": 65532,
      "max": [
        0.9119995832443237,
        0.979960024356842
      ],
      "min": [
        0.029955066740512848,
        0.018550241366028786
      ],
      "type": "VEC2"
    },
    {
      "bufferView": 0,
      "byteOffset": 824112,
      "componentType": 5125,
      "count": 184407,
      "type": "SCALAR"
    },
    {
      "bufferView": 2,
      "byteOffset": 3145584,
      "componentType": 5126,
      "count": 65532,
      "max": [
        1.3522331714630127,
        5.852362632751465,
        0.5318306684494019
      ],
      "min": [
        -1.2758901119232178,
        3.250123977661133,
        -0.04967941343784332
      ],
      "type": "VEC3"
    },
    {
      "bufferView": 2,
      "byteOffset": 3931968,
      "componentType": 5126,
      "count": 65532,
      "max": [
        0.9999973773956299,
        0.9999945759773254,
        0.5781214833259583
      ],
      "min": [
        -0.9999972581863403,
        -0.9999969005584717,
        -0.7126285433769226
      ],
      "type": "VEC3"
    },
    {
      "bufferView": 3,
      "byteOffset": 2097056,
      "componentType": 5126,
      "count": 65532,
      "max": [
        0.9999982714653015,
        0.9999952912330627,
        0.8509352207183838,
        1.0
      ],
      "min": [
        -0.9999580383300781,
        -0.9999567270278931,
        -0.8909517526626587,
        1.0
      ],
      "type": "VEC4"
    },
    {
      "bufferView": 1,
      "byteOffset": 1048528,
      "componentType": 5126,
      "count": 65532,
      "max": [
        0.9119995832443237,
        0.979960024356842
      ],
      "min": [
        0.029955066740512848,
        0.018550241366028786
      ],
      "type": "VEC2"
    },
    {
      "bufferView": 0,
      "byteOffset": 1561740,
      "componentType": 5125,
      "count": 183546,
      "type": "SCALAR"
    },
    {
      "bufferView": 2,
      "byteOffset": 4718352,
      "componentType": 5126,
      "count": 13827,
      "max": [
        1.1371692419052124,
        5.992453098297119,
        0.5018002390861511
      ],
      "min": [
        -1.192569613456726,
        3.004643440246582,
        -0.047281414270401
      ],
      "type": "VEC3"
    },
    {
      "bufferView": 2,
      "byteOffset": 4884276,
      "componentType": 5126,
      "count": 13827,
      "max": [
        0.9999873042106628,
        0.9999579787254333,
        0.47060447931289673
      ],
      "min": [
        -0.9997509717941284,
        -0.999971866607666,
        -0.6992416977882385
      ],
      "type": "VEC3"
    },
    {
      "bufferView": 3,
      "byteOffset": 3145568,
      "componentType": 5126,
      "count": 13827,
      "max": [
        0.9998405575752258,
        0.9997787475585938,
        0.802246630191803,
        1.0
      ],
      "min": [
        -0.9998577833175659,
        -0.9999313354492188,
        -0.7512441277503967,
        1.0
      ],
      "type": "VEC4"
    },
    {
      "bufferView": 1,
      "byteOffset": 1572784,
      "componentType": 5126,
      "count": 13827,
      "max": [
        0.9119995832443237,
        0.979960024356842
      ],
      "min": [
        0.029955066740512848,
        0.018550241366028786
      ],
      "type": "VEC2"
    },
    {
      "bufferView": 0,
      "byteOffset": 2295924,
      "componentType": 5125,
      "count": 38727,
      "type": "SCALAR"
    }
  ],
  "asset": {
    "extras": {
      "author": "brandon_grey (https://sketchfab.com/brandondmc10)",
      "license": "CC-BY-4.0 (http://creativecommons.org/licenses/by/4.0/)",
      "source": "https://sketchfab.com/3d-models/grass-patches-circle-662f27b14f994054bfdf841317dee7f8",
      "title": "Grass Patches - Circle"
    },
    "generator": "Sketchfab-0.3.0",
    "version": "2.0"
  },
  "bufferViews": [
    {
      "buffer": 0,
      "byteLength": 2450832,
      "name": "floatBufferViews",
      "target": 34963
    },
    {
      "buffer": 0,
      "byteLength": 1683400,
      "byteOffset": 2450832,
      "byteStride": 8,
      "name": "floatBufferViews",
      "target": 34962
    },
    {
      "buffer": 0,
      "byteLength": 5050200,
      "byteOffset": 4134232,
      "byteStride": 12,
      "name": "floatBufferViews",
      "target": 34962
    },
    {
      "buffer": 0,
      "byteLength": 3366800,
      "byteOffset": 9184432,
      "byteStride": 16,
      "name": "floatBufferViews",
      "target": 34962
    }
  ],
  "buffers": [
    {
      "byteLength": 12551232,
      "uri": "scene.bin"
    }
  ],
  "extensionsUsed": [
    "KHR_materials_specular"
  ],
  "images": [
    {
      "uri": "textures/BR_MainGrass_baseColor.png"
    },
    {
      "uri": "textures/BR_MainGrass_normal.png"
    }
  ],
  "materials": [
    {
      "alphaMode": "BLEND",
      "doubleSided": true,
      "extensions": {
        "KHR_materials_specular": {
          "specularColorFactor": [
            1.0,
            1.0,
            1.0
          ],
          "specularFactor": 1.0
        }
      },
      "name": "BR_MainGrass",
      "normalTexture": {
        "index": 1
      },
      "pbrMetallicRoughness": {
        "baseColorTexture": {
          "index": 0
        },
        "metallicFactor": 0.0,
        "roughnessFactor": 0.4739062061903426
      }
    }
  ],
  "meshes": [
    {
      "name": "GrassEmitterCircleMesh.004|BR_MainGrass_Diff.071|Dupli|117_BR_MainGrass_0",
      "primitives": [
        {
          "attributes": {
            "NORMAL": 1,
            "POSITION": 0,
            "TANGENT": 2,
            "TEXCOORD_0": 3
          },
          "indices": 4,
          "material": 0,
          "mode": 4
        }
      ]
    },
    {
      "name": "GrassEmitterCircleMesh.004|BR_MainGrass_Diff.071|Dupli|117_BR_MainGrass_0",
      "primitives": [
        {
          "attributes": {
            "NORMAL": 6,
            "POSITION": 5,
            "TANGENT": 7,
            "TEXCOORD_0": 8
          },
          "indices": 9,
          "material": 0,
          "mode": 4
        }
      ]
    },
    {
      "name": "GrassEmitterCircleMesh.004|BR_MainGrass_Diff.071|Dupli|117_BR_MainGrass_0",
      "primitives": [
        {
          "attributes": {
            "NORMAL": 11,
            "POSITION": 10,
            "TANGENT": 12,
            "TEXCOORD_0": 13
          },
          "indices": 14,
          "material": 0,
          "mode": 4
        }
      ]
    },
    {
      "name": "GrassEmitterCircleMesh.004|BR_MainGrass_Diff.071|Dupli|117_BR_MainGrass_0",
      "primitives": [
        {
          "attributes": {
            "NORMAL": 16,
            "POSITION": 15,
            "TANGENT": 17,
            "TEXCOORD_0": 18
          },
          "indices": 19,
          "material": 0,
          "mode": 4
        }
      ]
    }
  ],
  "nodes": [
    {
      "children": [
        1
      ],
      "matrix": [
        1.0,
        0.0,
        0.0,
        0.0,
        0.0,
        2.220446049250313e-16,
        -1.0,
        0.0,
        0.0,
        1.0,
        2.220446049250313e-16,
        0.0,
        0.0,
        0.0,
        0.0,
        1.0
      ],
      "name": "Sketchfab_model"
    },
    {
      "children": [
        2
      ],
      "matrix": [
        0.009999999776482582,
        0.0,
        0.0,
        0.0,
        0.0,
        0.0,
        0.009999999776482582,
        0.0,
        0.0,
        -0.009999999776482582,
        0.0,
        0.0,
        0.0,
        0.0,
        0.0,
        1.0
      ],
      "name": "08a47385c40f4e00bf8f95a7666caeb4.fbx"
    },
    {
      "children": [
        3
      ],
      "name": "RootNode"
    },
    {
      "children": [
        4,
        5,
        6,
        7
      ],
      "matrix": [
        343.8139953613281,
        0.0,
        0.0,
        0.0,
        0.0,
        -9.700023190966912e-05,
        -343.8139953613145,
        0.0,
        0.0,
        179.94883728026628,
        -5.076895991309947e-05,
        0.0,
        0.0,
        0.0,
        1542.5103759765625,
        1.0
      ],
      "name": "GrassEmitterCircleMesh.004|BR_MainGrass_Diff.071|Dupli|117"
    },
    {
      "mesh": 0,
      "name": "GrassEmitterCircleMesh.004|BR_MainGrass_Diff.071|Dupli|117_BR_MainGrass_0"
    },
    {
      "mesh": 1,
      "name": "GrassEmitterCircleMesh.004|BR_MainGrass_Diff.071|Dupli|117_BR_MainGrass_0"
    },
    {
      "mesh": 2,
      "name": "GrassEmitterCircleMesh.004|BR_MainGrass_Diff.071|Dupli|117_BR_MainGrass_0"
    },
    {
      "mesh": 3,
      "name": "GrassEmitterCircleMesh.004|BR_MainGrass_Diff.071|Dupli|117_BR_MainGrass_0"
    }
  ],
  "samplers": [
    {
      "magFilter": 9729,
      "minFilter": 9987,
      "wrapS": 10497,
      "wrapT": 10497
    }
  ],
  "scene": 0,
  "scenes": [
    {
      "name": "Sketchfab_Scene",
      "nodes": [
        0
      ]
    }
  ],
  "textures": [
    {
      "sampler": 0,
      "source": 0
    },
    {
      "sampler": 0,
      "source": 1
    }
  ]
}
